Fly_normalized_Motion_pl07
version=1
nRows=14
nColumns=43
inDegrees=yes
endheader
time		pelvis_tilt		pelvis_list		pelvis_rotation		pelvis_tx		pelvis_ty		pelvis_tz		hip_flexion_r		hip_adduction_r		hip_rotation_r		knee_angle_r		ankle_angle_r		subtalar_angle_r		mtp_angle_r		hip_flexion_l		hip_adduction_l		hip_rotation_l		knee_angle_l		ankle_angle_l		subtalar_angle_l		mtp_angle_l		lumbar_extension		lumbar_bending		lumbar_rotation		neck_flexion		neck_lateral_bending		neck_rotation		arm_flex_r		arm_add_r		arm_rot_r		elbow_flex_r		pro_sup_r		wrist_flex_r		wrist_dev_r		hand_finger_flex_r		arm_flex_l		arm_add_l		arm_rot_l		elbow_flex_l		pro_sup_l		wrist_flex_l		wrist_dev_l		hand_finger_flex_l		
0.689697		-2.074202		-3.140999		90.331269		-0.001077		1.703619		1.022001		52.241846		-3.722948		-4.649718		-71.920632		-17.524156		-3.498333		14.784857		44.877466		-2.357365		-9.102419		-60.470169		-17.579064		-17.488878		20.412963		-50.033073		-0.104830		1.575976		-1.350363		-2.107427		-2.651052		59.665425		-46.332156		36.276301		82.189906		80.377894		-35.878621		-2.398501		56.945663		47.605683		-35.565953		14.202984		89.805551		-94.806821		-23.158085		-24.221955		-90.000210		
0.694091		-2.090227		-2.800683		90.315037		-0.001240		1.694867		1.011730		51.630667		-3.733301		-4.775438		-70.521841		-17.915069		-3.590226		14.768217		44.112886		-2.396291		-9.393360		-58.958782		-17.914271		-17.422741		20.747922		-50.149510		-0.107184		1.324000		-1.732647		-2.123208		-2.461625		55.697179		-46.931872		34.512228		82.205488		81.136010		-35.495975		-2.645305		56.992607		43.365542		-36.432729		12.172965		90.239515		-94.873402		-23.246903		-24.066962		-90.000210		
0.698485		-2.144347		-2.441853		90.293765		-0.001428		1.685888		1.001433		50.976633		-3.778079		-4.880530		-69.144896		-18.301071		-3.720325		14.800276		43.305057		-2.392410		-9.697636		-57.452596		-18.263140		-17.446004		21.083441		-50.308484		-0.157023		1.005867		-1.971890		-2.053792		-2.174961		51.628012		-47.361611		32.453710		82.103009		82.424158		-34.756679		-2.922135		57.078347		39.056785		-37.272266		10.013422		90.702240		-94.646928		-23.651554		-24.015647		-90.000210		
0.702879		-2.173998		-2.051854		90.282453		-0.001824		1.676572		0.991064		50.307613		-3.856105		-5.017959		-67.868249		-18.816284		-3.746208		14.817771		42.481511		-2.394772		-9.978461		-56.028054		-18.657812		-17.481582		21.313997		-50.424311		-0.164114		0.787414		-2.568902		-1.963359		-2.030167		47.602195		-47.872794		30.573038		81.901672		83.499275		-34.153616		-3.083980		57.104974		34.790994		-37.877346		7.924081		90.912829		-94.291746		-24.092700		-23.917407		-90.000210		
0.707273		-2.201915		-1.709651		90.280402		-0.002063		1.667171		0.980695		49.562084		-3.913815		-5.187786		-66.400782		-19.287347		-3.854010		14.802801		41.678140		-2.365833		-10.162269		-54.587538		-18.909217		-17.622325		21.379406		-50.529498		-0.185953		0.537371		-2.808867		-1.925962		-1.868941		43.413417		-48.081701		28.347247		81.592187		84.229088		-33.888651		-3.369802		57.126273		30.476819		-38.243120		5.544774		90.974339		-93.700760		-24.540323		-23.647916		-90.000210		
0.711667		-2.247111		-1.330662		90.290508		-0.002428		1.657372		0.970249		48.829621		-4.010515		-5.350685		-65.092430		-19.810500		-4.003438		14.729751		40.849726		-2.319407		-10.358643		-53.230701		-19.177593		-17.762990		21.311195		-50.642221		-0.200845		0.315247		-3.120279		-1.862061		-1.699472		39.193399		-48.281574		26.040630		81.230981		84.941236		-33.507080		-3.721121		57.275089		26.183259		-38.486285		3.245568		90.985370		-92.864157		-25.082319		-23.256846		-90.000210		
0.716061		-2.276690		-0.924441		90.316711		-0.002717		1.647324		0.959738		48.062143		-4.102274		-5.549539		-63.823402		-20.378350		-4.134708		14.586705		39.987360		-2.284214		-10.527785		-51.920398		-19.434819		-17.870480		21.178300		-50.746798		-0.190588		0.120816		-3.523750		-1.833376		-1.562534		35.006260		-48.404948		23.776535		80.801419		85.274406		-33.262941		-4.024366		57.408434		21.901544		-38.558262		0.954245		90.847308		-92.200958		-25.382285		-22.772772		-90.000210		
0.720455		-2.304457		-0.434579		90.355619		-0.003049		1.637088		0.949181		47.202213		-4.212958		-5.772293		-62.603116		-20.961344		-4.256491		14.386944		39.051651		-2.255602		-10.708261		-50.687973		-19.704630		-17.936622		21.031574		-50.923115		-0.181403		-0.069704		-3.936562		-1.771521		-1.416474		30.813621		-48.454917		21.416315		80.333785		85.528639		-32.852714		-4.289197		57.544344		17.689702		-38.518434		-1.286096		90.646587		-91.572503		-25.605144		-22.207514		-90.000210		
0.724848		-2.241449		0.001429		90.398724		-0.003521		1.626445		0.938530		46.381505		-4.277216		-6.040406		-61.397725		-21.605318		-4.171207		14.217967		38.201232		-2.317177		-10.873971		-49.553757		-19.951436		-17.952711		20.948763		-50.894217		-0.070352		-0.209327		-4.946094		-1.810495		-1.382157		26.955739		-48.389021		19.585271		79.572605		85.247632		-33.055758		-4.328689		57.544569		13.529712		-38.227823		-3.464558		90.123966		-91.421470		-25.486543		-21.835400		-90.000210		
0.729242		-2.241773		0.665258		90.482907		-0.003732		1.616092		0.927872		45.226682		-4.396252		-6.354005		-60.116165		-22.112752		-4.224200		13.916857		37.059874		-2.315743		-11.033704		-48.387334		-20.159536		-17.982975		20.861800		-51.254473		-0.056680		-0.302855		-5.234207		-1.597503		-1.268741		22.655978		-48.168779		16.751689		78.997151		85.649389		-32.086121		-4.494209		57.627721		9.637615		-37.957098		-5.493915		89.725422		-90.543902		-25.750083		-21.040444		-90.000210		
0.733636		-2.162344		1.176249		90.576439		-0.003939		1.605042		0.917208		44.254928		-4.472145		-6.726167		-58.910559		-22.600520		-4.167725		13.662675		36.145651		-2.387413		-11.091518		-47.328269		-20.315814		-18.055418		20.821224		-51.402043		0.016023		-0.379472		-5.621786		-1.423902		-1.152218		18.508363		-47.878085		14.264339		78.389050		85.577451		-31.789466		-4.570061		57.528950		5.729508		-37.577683		-7.548121		89.244462		-89.944849		-25.809133		-20.303835		-90.000210		
0.738030		-2.086173		1.773012		90.701759		-0.004413		1.594038		0.906553		43.124356		-4.561447		-7.096887		-57.626662		-23.061727		-4.066875		13.314873		35.112056		-2.408688		-11.182338		-46.250995		-20.511216		-18.207358		20.778139		-51.601143		0.128830		-0.306832		-6.219239		-1.204616		-1.226211		14.178453		-47.457926		11.339702		77.716740		85.731055		-31.077407		-4.675352		57.353393		2.246267		-37.062894		-9.165847		88.479643		-88.710237		-26.117084		-19.293988		-90.000210		
0.742424		-2.013549		2.058856		90.770922		-0.004786		1.582039		0.895970		42.410243		-4.600997		-7.360164		-56.477991		-23.513729		-3.957610		13.129015		34.466841		-2.458566		-11.248837		-45.278421		-20.595759		-18.395410		20.725704		-51.426552		0.215820		-0.391208		-6.754794		-1.085746		-1.072752		10.359577		-46.923910		9.200183		76.869465		85.368407		-31.287622		-4.740193		57.189176		-1.502791		-36.437965		-11.158453		87.809775		-88.267783		-26.121314		-18.719592		-90.000210		
0.746818		-1.976653		2.603635		90.863853		-0.005193		1.570249		0.885244		41.387657		-4.708576		-7.677735		-55.349298		-23.986445		-3.840557		12.867469		33.558357		-2.497006		-11.386950		-44.383878		-20.896341		-18.635042		20.622571		-51.450749		0.298082		-0.255447		-7.657914		-0.956770		-1.222985		6.154126		-46.340609		6.455606		76.113966		85.286309		-30.827373		-5.012119		56.905083		-4.645306		-35.854327		-12.467283		86.810110		-87.018449		-26.622871		-17.734879		-90.000210		
